<?xml version="1.0" standalone="no"?>
<!DOCTYPE svg PUBLIC "-//W3C//DTD SVG 20010904//EN"
 "http://www.w3.org/TR/2001/REC-SVG-20010904/DTD/svg10.dtd">
<svg version="1.0" xmlns="http://www.w3.org/2000/svg"
 width="1024.000000pt" height="1024.000000pt" viewBox="0 0 1024.000000 1024.000000"
 preserveAspectRatio="xMidYMid meet">
<metadata>
Created by potrace 1.14, written by Peter Selinger 2001-2017
</metadata>
<g transform="translate(0.000000,1024.000000) scale(0.100000,-0.100000)"
fill="#000000" stroke="none">
<path d="M0 5120 l0 -5120 5120 0 5120 0 0 5120 0 5120 -5120 0 -5120 0 0
-5120z m6908 2523 l2 -213 170 0 170 0 -2 -162 -3 -163 -167 -3 -168 -2 0
-638 c0 -350 -3 -802 -7 -1004 l-6 -368 176 0 177 0 0 -160 0 -160 -172 -2
-173 -3 -3 -177 -2 -178 -1780 0 -1780 0 -2 178 -3 177 -172 3 -173 2 0 160 0
160 177 0 176 0 -6 363 c-4 199 -7 651 -7 1004 l0 643 -167 2 -168 3 -3 163
-2 162 170 0 170 0 0 208 c0 115 3 212 7 215 3 4 808 6 1787 5 l1781 -3 3
-212z m-275 -3549 c4 -4 -64 -51 -151 -104 -455 -281 -1075 -664 -1209 -746
l-153 -94 -297 184 c-164 100 -406 250 -538 331 -132 82 -296 183 -365 225
-276 169 -319 197 -313 204 8 8 3018 8 3026 0z m-3125 -323 l152 -95 0 -483 0
-483 1460 0 1460 0 0 483 0 484 158 97 157 96 3 -580 2 -580 475 0 475 0 0
-160 0 -160 -2730 0 -2730 0 0 160 0 160 475 0 475 0 0 581 c0 319 4 579 8
577 4 -1 76 -45 160 -97z"/>
<path d="M3340 7265 l0 -155 1780 0 1780 0 0 155 0 155 -1780 0 -1780 0 0
-155z"/>
<path d="M5070 6697 c-310 -432 -405 -604 -425 -771 -9 -69 16 -181 56 -256
35 -66 120 -152 189 -193 60 -35 149 -57 230 -57 131 0 230 41 331 137 131
125 177 309 119 477 -44 130 -140 298 -286 501 -59 83 -119 167 -133 187 -14
21 -28 37 -31 37 -3 0 -25 -28 -50 -62z m118 -594 c34 -60 69 -130 78 -156 37
-110 -31 -207 -146 -207 -115 0 -183 97 -146 207 18 51 135 263 146 263 4 0
34 -48 68 -107z"/>
<path d="M3340 4930 l0 -160 1780 0 1780 0 0 160 0 160 -1780 0 -1780 0 0
-160z"/>
</g>
</svg>
